{
    "accessors" : [
        {
            "bufferView" : 0, 
            "componentType" : 5123, 
            "count" : 11088, 
            "max" : [
                1976
            ], 
            "min" : [
                0
            ], 
            "type" : "SCALAR"
        }, 
        {
            "bufferView" : 1, 
            "componentType" : 5126, 
            "count" : 1977, 
            "max" : [
                2.4578800201416016, 
                2.4578299522399902, 
                2.4872782230377197
            ], 
            "min" : [
                -2.4578800201416016, 
                -2.4578299522399902, 
                -2.487278461456299
            ], 
            "type" : "VEC3"
        }, 
        {
            "bufferView" : 2, 
            "componentType" : 5126, 
            "count" : 1977, 
            "max" : [
                1.0, 
                0.999969482421875, 
                0.999969482421875
            ], 
            "min" : [
                -1.0, 
                -0.999969482421875, 
                -0.999969482421875
            ], 
            "type" : "VEC3"
        }, 
        {
            "bufferView" : 3, 
            "componentType" : 5126, 
            "count" : 1977, 
            "max" : [
                1.0, 
                1.0, 
                0.038898225873708725, 
                1.0
            ], 
            "min" : [
                -1.0, 
                -1.0, 
                -0.038898251950740814, 
                1.0
            ], 
            "type" : "VEC4"
        }, 
        {
            "bufferView" : 4, 
            "componentType" : 5126, 
            "count" : 1977, 
            "max" : [
                1.0, 
                1.0
            ], 
            "min" : [
                0.0, 
                0.0
            ], 
            "type" : "VEC2"
        }
    ], 
    "asset" : {
        "generator" : "Khronos Blender glTF 2.0 exporter", 
        "version" : "2.0"
    }, 
    "bufferViews" : [
        {
            "buffer" : 0, 
            "byteLength" : 22176, 
            "byteOffset" : 0, 
            "target" : 34963
        }, 
        {
            "buffer" : 0, 
            "byteLength" : 23724, 
            "byteOffset" : 22176, 
            "target" : 34962
        }, 
        {
            "buffer" : 0, 
            "byteLength" : 23724, 
            "byteOffset" : 45900, 
            "target" : 34962
        }, 
        {
            "buffer" : 0, 
            "byteLength" : 31632, 
            "byteOffset" : 69624, 
            "target" : 34962
        }, 
        {
            "buffer" : 0, 
            "byteLength" : 15816, 
            "byteOffset" : 101256, 
            "target" : 34962
        }
    ], 
    "buffers" : [
        {
            "byteLength" : 117072, 
            "uri" : "Earth.bin"
        }
    ], 
    "images" : [
        {
            "uri" : "Earth_TEXTURE_CM.png"
        }
    ], 
    "materials" : [
        {
            "name" : "Earth_MATERIAL", 
            "pbrMetallicRoughness" : {
                "baseColorFactor" : [
                    0.6400000190734865, 
                    0.6400000190734865, 
                    0.6400000190734865, 
                    1.0
                ], 
                "baseColorTexture" : {
                    "index" : 0
                }, 
                "metallicFactor" : 0.0
            }
        }
    ], 
    "meshes" : [
        {
            "name" : "Earth", 
            "primitives" : [
                {
                    "attributes" : {
                        "NORMAL" : 2, 
                        "POSITION" : 1, 
                        "TANGENT" : 3, 
                        "TEXCOORD_0" : 4
                    }, 
                    "indices" : 0, 
                    "material" : 0
                }
            ]
        }
    ], 
    "nodes" : [
        {
            "mesh" : 0, 
            "name" : "Earth", 
            "rotation" : [
                5.338508302088485e-08, 
                0.7071067094802856, 
                -0.7071068286895752, 
                5.338507591545749e-08
            ]
        }
    ], 
    "samplers" : [
        {}
    ], 
    "scene" : 0, 
    "scenes" : [
        {
            "name" : "Scene", 
            "nodes" : [
                0
            ]
        }
    ], 
    "textures" : [
        {
            "sampler" : 0, 
            "source" : 0
        }
    ]
}
